<svg width="126" height="100" viewBox="0 0 126 100" fill="none" xmlns="http://www.w3.org/2000/svg">
<path d="M14.0983 13.0686C13.8615 6.26961 19.1588 0 26.3191 0H99.6899C106.85 0 112.148 6.26961 111.911 13.0686C111.683 19.5998 111.979 28.0601 114.108 34.9583C116.244 41.8779 119.846 46.2517 125.745 46.8137V53.1863C119.846 53.7483 116.244 58.1221 114.108 65.0417C111.979 71.9399 111.683 80.4002 111.911 86.9316C112.148 93.7304 106.85 100 99.6899 100H26.3191C19.1588 100 13.8615 93.7304 14.0985 86.9316C14.3257 80.4002 14.0304 71.9399 11.901 65.0417C9.76518 58.1221 6.15439 53.7483 0.254883 53.1863V46.8137C6.15415 46.2517 9.76518 41.8779 11.901 34.9583C14.0304 28.0601 14.3257 19.5998 14.0983 13.0686Z" fill="#161513"/>
<g filter="url(#filter0_d_53_1411)">
<path d="M65.7211 76.5825C77.3135 76.5825 84.2991 70.9065 84.2991 61.5445C84.2991 54.4678 79.3148 49.3445 71.9138 48.5335V48.2386C77.3513 47.3541 81.6182 42.3046 81.6182 36.6654C81.6182 28.6303 75.2746 23.3962 65.6079 23.3962H43.8579V76.5825H65.7211ZM52.3162 30.1413H63.5689C69.6861 30.1413 73.1599 32.8688 73.1599 37.8078C73.1599 43.0786 69.1197 46.0271 61.7942 46.0271H52.3162V30.1413ZM52.3162 69.8377V52.3301H63.4932C71.4984 52.3301 75.652 55.2786 75.652 61.0286C75.652 66.7783 71.6118 69.8377 63.9841 69.8377H52.3162Z" fill="white"/>
<path d="M65.7211 76.5825C77.3135 76.5825 84.2991 70.9065 84.2991 61.5445C84.2991 54.4678 79.3148 49.3445 71.9138 48.5335V48.2386C77.3513 47.3541 81.6182 42.3046 81.6182 36.6654C81.6182 28.6303 75.2746 23.3962 65.6079 23.3962H43.8579V76.5825H65.7211ZM52.3162 30.1413H63.5689C69.6861 30.1413 73.1599 32.8688 73.1599 37.8078C73.1599 43.0786 69.1197 46.0271 61.7942 46.0271H52.3162V30.1413ZM52.3162 69.8377V52.3301H63.4932C71.4984 52.3301 75.652 55.2786 75.652 61.0286C75.652 66.7783 71.6118 69.8377 63.9841 69.8377H52.3162Z" stroke="white"/>
</g>
<defs>
<filter id="filter0_d_53_1411" x="27.3579" y="10.8962" width="73.4412" height="86.1863" filterUnits="userSpaceOnUse" color-interpolation-filters="sRGB">
<feFlood flood-opacity="0" result="BackgroundImageFix"/>
<feColorMatrix in="SourceAlpha" type="matrix" values="0 0 0 0 0 0 0 0 0 0 0 0 0 0 0 0 0 0 127 0" result="hardAlpha"/>
<feOffset dy="4"/>
<feGaussianBlur stdDeviation="8"/>
<feColorMatrix type="matrix" values="0 0 0 0 0 0 0 0 0 0 0 0 0 0 0 0 0 0 0.15 0"/>
<feBlend mode="normal" in2="BackgroundImageFix" result="effect1_dropShadow_53_1411"/>
<feBlend mode="normal" in="SourceGraphic" in2="effect1_dropShadow_53_1411" result="shape"/>
</filter>
</defs>
</svg>
