<svg width="104" height="100" viewBox="0 0 104 100" fill="none" xmlns="http://www.w3.org/2000/svg">
<path d="M6.68257 23.4863C-2.50945 36.6956 -1.36516 53.881 5.65675 67.9162C5.82369 68.2527 5.99869 68.5838 6.171 68.9149C6.28142 69.1248 6.38505 69.3402 6.49948 69.5475C6.56413 69.6712 6.63678 69.7924 6.70411 69.9109C6.8239 70.1343 6.94642 70.347 7.07027 70.565C7.28836 70.95 7.51184 71.3322 7.74068 71.7145C7.86723 71.9245 7.99243 72.1344 8.12302 72.3444C8.37611 72.7536 8.63593 73.1574 8.90113 73.5611C9.01154 73.7334 9.11921 73.9057 9.23229 74.0726C9.59847 74.6191 9.97271 75.1628 10.359 75.6985C10.3686 75.7123 10.3792 75.7282 10.3913 75.7415C10.452 75.8276 10.5192 75.9111 10.5811 75.9973C10.915 76.4576 11.2596 76.9125 11.6083 77.3621C11.7362 77.5263 11.8654 77.6905 11.9946 77.8547C12.3056 78.245 12.622 78.6327 12.9437 79.0203C13.0635 79.1656 13.1847 79.311 13.3059 79.4537C13.738 79.9624 14.1782 80.4685 14.6278 80.9638C14.6361 80.9715 14.6467 80.9827 14.6547 80.9907C14.6736 81.0122 14.6897 81.0257 14.7058 81.0472C15.1447 81.5263 15.5943 81.9947 16.0494 82.4631C16.1907 82.6085 16.3348 82.7539 16.4802 82.8966C16.8329 83.2519 17.191 83.6019 17.5531 83.9491C17.6998 84.0891 17.8452 84.2318 17.992 84.3663C18.4753 84.8213 18.9639 85.2681 19.462 85.7043C19.4703 85.712 19.4768 85.718 19.4849 85.7231C19.5697 85.7985 19.6572 85.8685 19.7407 85.9412C20.1796 86.3207 20.6265 86.6976 21.0761 87.0691C21.2592 87.2172 21.445 87.3626 21.6294 87.5106C21.9969 87.804 22.3685 88.0948 22.7427 88.3801C22.9406 88.5309 23.1385 88.6816 23.3378 88.8324C23.751 89.1365 24.167 89.4354 24.587 89.7288C24.7405 89.8392 24.8886 89.9468 25.042 90.0518C25.0851 90.0815 25.1242 90.111 25.1672 90.1407C25.5657 90.4152 25.9736 90.679 26.3802 90.9429C26.5552 91.0586 26.7289 91.1797 26.9052 91.2928C27.5299 91.6885 28.164 92.0789 28.8047 92.4557C28.9784 92.5554 29.1547 92.6522 29.3297 92.7519C29.8009 93.0237 30.2748 93.2902 30.7554 93.5514C31.0152 93.6913 31.2817 93.8232 31.5443 93.9578C31.8835 94.1355 32.2201 94.3159 32.5647 94.4881C32.6427 94.526 32.7235 94.5636 32.8003 94.6012C32.9389 94.6684 33.0789 94.7331 33.2176 94.8031C33.752 95.0588 34.2905 95.3092 34.8344 95.5514C34.9502 95.6026 35.062 95.6538 35.1764 95.7049C35.7997 95.9767 36.4283 96.2379 37.0624 96.4882C37.2146 96.5501 37.368 96.6094 37.5215 96.6686C38.1084 96.8947 38.7035 97.1181 39.3012 97.3281C39.3766 97.355 39.4493 97.3793 39.5247 97.4061C40.1803 97.6349 40.8427 97.8475 41.509 98.0548C41.6679 98.1006 41.828 98.1517 41.9882 98.1975C42.6667 98.4021 43.3372 98.647 44.0372 98.7763C88.4919 106.882 101.405 72.0665 101.405 72.0665C90.5597 86.1932 71.3088 89.9189 53.0693 85.7709C52.3787 85.6148 51.7083 85.3994 51.0338 85.2002C50.8628 85.149 50.6946 85.098 50.5263 85.0468C49.868 84.8449 49.215 84.6322 48.5662 84.4088C48.4773 84.3766 48.3872 84.3442 48.297 84.3119C47.7154 84.1073 47.1406 83.8919 46.5684 83.6712C46.4069 83.6066 46.2453 83.5447 46.0838 83.4801C45.4564 83.2324 44.8332 82.974 44.2179 82.7048C44.0914 82.6509 43.9702 82.5944 43.845 82.5406C43.3159 82.301 42.7923 82.0587 42.2713 81.8084C42.1205 81.7357 41.9697 81.6657 41.8163 81.5903C41.4071 81.3907 41.0024 81.1779 40.5987 80.9706C40.3286 80.8284 40.054 80.6939 39.786 80.545C39.293 80.2815 38.8089 80.007 38.3269 79.7269C38.1637 79.6354 37.9983 79.5472 37.834 79.4523C37.1932 79.0752 36.5602 78.6849 35.9338 78.2891C35.7607 78.1788 35.5919 78.0608 35.421 77.9473C34.9666 77.654 34.5145 77.3552 34.0689 77.0486C33.9212 76.9483 33.7789 76.8413 33.6333 76.7421C33.2032 76.4378 32.7775 76.1302 32.3552 75.8181C32.1633 75.6759 31.9747 75.5325 31.7883 75.3903C31.4012 75.0937 31.0163 74.7949 30.6348 74.4884C30.4624 74.3511 30.2901 74.2138 30.1205 74.0765C29.6359 73.6781 29.1566 73.277 28.6841 72.8652C28.6343 72.8222 28.5804 72.779 28.5266 72.7333C28.015 72.2837 27.5129 71.8234 27.0161 71.3604C26.8721 71.2231 26.7321 71.0885 26.5907 70.9512C26.2232 70.6013 25.8611 70.2486 25.5057 69.8879C25.363 69.7452 25.2203 69.6052 25.0803 69.4626C24.628 68.9996 24.1837 68.5312 23.7488 68.0547C23.7273 68.0305 23.7045 68.009 23.6829 67.9847C23.2225 67.4813 22.7729 66.9672 22.3327 66.4477C22.2129 66.305 22.0971 66.1677 21.9786 66.0278C21.6501 65.632 21.3243 65.2309 21.0066 64.8271C20.8875 64.6816 20.7684 64.5327 20.6504 64.3828C20.2677 63.8866 19.8939 63.3915 19.5277 62.8887C9.4013 49.0784 5.76342 30.0308 13.857 14.3879" fill="#161513"/>
<path d="M35.2165 12.3577C28.569 21.9221 28.9297 34.7253 34.1153 44.8407C34.985 46.5367 35.9623 48.1814 37.0555 49.7481C38.0516 51.1748 39.1556 52.8735 40.4775 54.0202C40.9568 54.5478 41.4576 55.062 41.9691 55.5681C42.0982 55.7 42.2302 55.8265 42.3622 55.9557C42.8589 56.4376 43.3638 56.9114 43.8861 57.3717C43.9076 57.3878 43.9264 57.4093 43.948 57.4256C43.9535 57.4311 43.959 57.4333 43.9627 57.4394C44.5402 57.9455 45.1365 58.4327 45.7424 58.9118C45.8771 59.014 46.0103 59.1218 46.1463 59.2268C46.7534 59.6925 47.3727 60.1501 48.0081 60.5862C48.027 60.6 48.0431 60.6131 48.062 60.6266C48.342 60.8204 48.6274 61.0008 48.9114 61.1865C49.0474 61.2754 49.1767 61.3695 49.314 61.453C49.7677 61.7437 50.2267 62.0264 50.6938 62.2983C50.7599 62.3386 50.8244 62.3737 50.889 62.4113C51.2916 62.6428 51.6994 62.8716 52.1087 63.0923C52.2514 63.173 52.3968 63.2431 52.5422 63.3185C52.8249 63.4665 53.1076 63.6173 53.3957 63.7599C53.4387 63.7814 53.4832 63.8003 53.5249 63.8193C54.1105 64.1073 54.7015 64.3846 55.3046 64.6484C55.4338 64.7049 55.5671 64.756 55.6977 64.8099C56.1796 65.0145 56.667 65.2137 57.157 65.4021C57.3643 65.4802 57.5743 65.5555 57.7816 65.6309C58.2259 65.7951 58.6715 65.9459 59.1211 66.0966C59.3244 66.1612 59.5236 66.2285 59.7269 66.2904C60.3663 66.4896 60.9977 66.74 61.6641 66.8504C95.9872 72.5357 103.911 46.1146 103.911 46.1146C96.768 56.4004 82.9353 61.3075 68.1741 57.477C67.5184 57.3047 66.8723 57.1163 66.2301 56.9144C66.0336 56.8552 65.841 56.7906 65.6458 56.726C65.1895 56.5779 64.7358 56.4218 64.2862 56.2576C64.0802 56.1821 63.8743 56.1068 63.6723 56.0288C63.1796 55.8403 62.6922 55.6438 62.209 55.4392C62.0771 55.3827 61.9438 55.3316 61.8145 55.2723C61.2087 55.0085 60.6123 54.7312 60.0241 54.4405C59.7212 54.2925 59.4237 54.1363 59.1262 53.9829C58.9538 53.8941 58.7802 53.8052 58.6078 53.7164C58.2255 53.5091 57.8459 53.2938 57.4716 53.0757C57.3828 53.0245 57.2899 52.976 57.1997 52.9223C56.7352 52.6504 56.2775 52.3704 55.8238 52.0824C55.6838 51.9935 55.5492 51.8966 55.4092 51.8051C55.1103 51.6113 54.8114 51.4148 54.518 51.2156C53.8852 50.7795 53.27 50.3218 52.6629 49.8588C52.5229 49.7484 52.3829 49.6408 52.2456 49.5304C45.7842 44.4297 40.6627 37.4601 38.2276 29.5565C35.6757 21.3597 36.226 12.1583 40.6472 4.69141" fill="#161513"/>
<path d="M59.2147 4.04291C55.2959 9.80904 54.9109 16.97 57.6302 23.3387C60.4976 30.0982 66.3739 35.4013 73.2318 37.9153C73.5145 38.0203 73.7972 38.1145 74.084 38.2114C74.2091 38.2491 74.333 38.2922 74.4596 38.3298C74.8634 38.4563 75.2646 38.6043 75.6819 38.6824C94.6339 42.3434 99.7742 28.9591 101.143 26.9892C96.6397 33.4713 89.0724 35.0272 79.7877 32.7742C79.0544 32.5955 78.2482 32.3309 77.5413 32.0806C76.6348 31.7575 75.7415 31.3893 74.8736 30.9725C73.2248 30.1808 71.6533 29.2193 70.1965 28.1189C61.8878 21.8164 56.7266 9.79233 62.1481 0" fill="#161513"/>
</svg>
