<svg width="112" height="84" viewBox="0 0 112 84" fill="none" xmlns="http://www.w3.org/2000/svg">
<path d="M96.4408 48.2883C92.5334 48.3088 89.1375 49.2499 86.294 50.6411C85.2507 48.5747 84.2073 46.7334 84.0232 45.3832C83.8187 43.8078 83.5732 42.8463 83.8187 40.964C84.0641 39.0818 85.1688 36.4017 85.1484 36.1971C85.1279 35.9925 84.9029 35.031 82.6526 35.0105C80.4023 34.9901 78.4589 35.4402 78.2338 36.0335C78.0088 36.6268 77.5792 37.9771 77.2928 39.3683C76.9041 41.4141 72.7922 48.7179 70.4396 52.5438C69.6827 51.0503 69.0281 49.7409 68.8849 48.6975C68.6803 47.1222 68.4348 46.1606 68.6803 44.2784C68.9258 42.3962 70.0305 39.7161 70.01 39.5115C69.9896 39.3069 69.7645 38.3453 67.5142 38.3249C65.2639 38.3044 63.3205 38.7545 63.0955 39.3478C62.8704 39.9411 62.625 41.3323 62.1544 42.6826C61.6839 44.0329 56.2218 56.2264 54.7898 59.377C54.0534 60.9933 53.4192 62.2822 52.9691 63.1619C52.9691 63.1619 52.9487 63.2233 52.8873 63.3256C52.4986 64.0826 52.2736 64.4917 52.2736 64.4917C52.2736 64.4917 52.2736 64.4917 52.2736 64.5122C51.9667 65.0646 51.6394 65.5761 51.4758 65.5761C51.353 65.5761 51.128 64.103 51.5167 62.098C52.335 57.8631 54.2784 51.2753 54.258 51.0503C54.258 50.9275 54.6262 49.7818 52.9896 49.1885C51.3939 48.5952 50.8211 49.5772 50.6779 49.5772C50.5347 49.5772 50.4324 49.925 50.4324 49.925C50.4324 49.925 52.2122 42.5189 47.0365 42.5189C43.8043 42.5189 39.3446 46.0583 37.1352 49.2499C35.7442 50.0069 32.7779 51.6231 29.607 53.3621C28.4 54.0373 27.1521 54.7124 25.9861 55.3466C25.9042 55.2648 25.8224 55.1625 25.7406 55.0807C19.4807 48.3906 7.90186 43.6646 8.39283 34.6832C8.57695 31.4098 9.70209 22.817 30.6298 12.383C47.8548 3.89258 61.5612 6.24535 63.9342 11.4624C67.3301 18.9094 56.5901 32.7396 38.7923 34.7446C32.0005 35.5015 28.4409 32.8828 27.5408 31.9008C26.5998 30.8778 26.4566 30.8165 26.1088 31.021C25.536 31.3279 25.9042 32.2486 26.1088 32.7805C26.6407 34.1717 28.8296 36.6268 32.5324 37.8338C35.8055 38.8977 43.7634 39.491 53.3987 35.7675C64.1797 31.5939 72.6081 19.9937 70.1328 10.2757C67.6574 0.414573 51.2916 -2.83839 35.8055 2.66505C26.5998 5.93847 16.6166 11.0941 9.43615 17.8046C0.905481 25.7836 -0.444695 32.7191 0.10765 35.6243C2.092 45.9356 16.3098 52.6461 21.9969 57.6176C21.7105 57.7812 21.4445 57.9244 21.2195 58.0472C18.376 59.4589 7.53363 65.126 4.83327 71.1204C1.76469 77.9128 5.32424 82.782 7.67683 83.4366C14.9801 85.4621 22.4879 81.8204 26.5179 75.8055C30.548 69.7906 30.057 61.9753 28.1954 58.395C28.175 58.3541 28.1545 58.3132 28.1136 58.2722C28.8501 57.8426 29.607 57.3925 30.3434 56.9629C31.7959 56.1036 33.2279 55.3057 34.4553 54.651C33.7598 56.5537 33.2484 58.8246 33.0029 62.098C32.696 65.9443 34.2712 70.9363 36.3374 72.9003C37.258 73.7596 38.3422 73.7801 39.0378 73.7801C41.4517 73.7801 42.536 71.7751 43.7429 69.4019C45.2159 66.4967 46.5456 63.121 46.5456 63.121C46.5456 63.121 44.8885 72.2457 49.3891 72.2457C51.0257 72.2457 52.6827 70.1179 53.4192 69.0336C53.4192 69.0541 53.4192 69.0541 53.4192 69.0541C53.4192 69.0541 53.4601 68.9927 53.542 68.8495C53.7056 68.5835 53.8079 68.4198 53.8079 68.4198C53.8079 68.4198 53.8079 68.3994 53.8079 68.3789C54.4625 67.2332 55.9354 64.6349 58.1244 60.3181C60.9475 54.7533 63.6683 47.7973 63.6683 47.7973C63.6683 47.7973 63.9138 49.4954 64.7525 52.3187C65.2435 53.9759 66.2663 55.7967 67.0846 57.5562C66.43 58.4768 66.0209 58.9883 66.0209 58.9883C66.0209 58.9883 66.0209 58.9883 66.0413 59.0088C65.5094 59.7044 64.9366 60.4613 64.3025 61.1979C62.0726 63.8575 59.4132 66.9059 59.0449 67.7856C58.6153 68.829 58.7176 69.586 59.5359 70.1998C60.1292 70.6499 61.193 70.7112 62.2772 70.6499C64.282 70.5066 65.6935 70.0156 66.3891 69.7087C67.4733 69.32 68.7417 68.7267 69.9282 67.847C72.1171 66.2307 73.4468 63.9189 73.3241 60.8705C73.2627 59.1929 72.7104 57.5153 72.0353 55.9399C72.2399 55.6535 72.424 55.3671 72.6285 55.0807C76.0858 50.0273 78.7657 44.483 78.7657 44.483C78.7657 44.483 79.0112 46.1811 79.8499 49.0044C80.2591 50.4365 81.0978 51.9914 81.8343 53.5053C78.5816 56.1445 76.5768 59.2134 75.8608 61.2183C74.572 64.9418 75.5744 66.6195 77.4769 67.0082C78.3361 67.1923 79.5635 66.7831 80.4637 66.3944C81.6093 66.0262 82.9594 65.3919 84.2483 64.4508C86.4372 62.8346 88.5443 60.5841 88.4215 57.5357C88.3602 56.1445 87.9919 54.7738 87.4805 53.444C90.2422 52.2983 93.8018 51.664 98.3433 52.196C108.081 53.3417 110.004 59.4179 109.636 61.9753C109.267 64.5327 107.222 65.9239 106.547 66.3535C105.872 66.7831 105.647 66.9263 105.708 67.2332C105.79 67.6833 106.117 67.6629 106.69 67.581C107.488 67.4378 111.804 65.5147 111.988 60.8091C112.295 54.7942 106.567 48.2269 96.4408 48.2883ZM21.3218 73.6164C18.0896 77.1353 13.589 78.4651 11.6455 77.3399C9.55889 76.1328 10.3772 70.9363 14.3459 67.2128C16.7598 64.9418 19.8693 62.8346 21.9355 61.5457C22.406 61.2592 23.1016 60.8501 23.9403 60.3386C24.0835 60.2568 24.1654 60.2158 24.1654 60.2158C24.329 60.1135 24.4927 60.0112 24.6563 59.909C26.1088 65.2283 24.7177 69.9133 21.3218 73.6164ZM44.8476 57.6176C43.7225 60.359 41.3699 67.3764 39.9379 66.9877C38.7104 66.6604 37.9535 61.3411 39.6924 56.0831C40.5721 53.444 42.4337 50.2933 43.5179 49.0658C45.2772 47.1017 47.2207 46.447 47.6912 47.2449C48.2844 48.2883 45.5432 55.899 44.8476 57.6176ZM64.2615 66.9059C63.791 67.1514 63.341 67.3151 63.1364 67.1923C62.9932 67.1105 63.341 66.7831 63.341 66.7831C63.341 66.7831 65.7754 64.1644 66.7369 62.9778C67.2892 62.2822 67.9438 61.4638 68.6394 60.5432C68.6394 60.625 68.6394 60.7273 68.6394 60.8091C68.6394 63.9394 65.6117 66.0466 64.2615 66.9059ZM79.2362 63.4893C78.8885 63.2437 78.9498 62.4254 80.1159 59.868C80.566 58.8656 81.6297 57.1879 83.4504 55.5717C83.655 56.2264 83.7982 56.8606 83.7777 57.4539C83.7573 61.4024 80.9342 62.8755 79.2362 63.4893Z" fill="#161513"/>
</svg>
