<svg width="112" height="100" viewBox="0 0 112 100" fill="none" xmlns="http://www.w3.org/2000/svg">
<path d="M1.38708 35.6363L25.1277 3.76663L56 0.502786L86.8724 3.76663L110.613 35.6363L56 99.2324L1.38708 35.6363Z" fill="#161513" stroke="white"/>
<path d="M1.8355 36.1584H22.8213L53.6458 96.491L1.8355 36.1584Z" fill="#161513" stroke="white"/>
<path d="M110.164 36.1584H89.1787L58.3542 96.491L110.164 36.1584Z" fill="#161513" stroke="white"/>
<path d="M56.0002 98.901L23.9444 36.1584H88.0561L56.0002 98.901Z" fill="#161513" stroke="white"/>
<path d="M23.7008 34.2988L25.334 3.74477L54.7332 0.636737L23.7008 34.2988Z" fill="#161513" stroke="white"/>
<path d="M88.2992 34.2988L86.666 3.74477L57.2668 0.636737L88.2992 34.2988Z" fill="#161513" stroke="white"/>
<path d="M89.3467 35.1585H110.257L87.73 4.91828L89.3467 35.1585Z" fill="#161513" stroke="white"/>
<path d="M22.6533 35.1585H1.74301L24.2697 4.91828L22.6533 35.1585Z" fill="#161513" stroke="white"/>
<path d="M87.732 35.1584H24.2684L56.0002 0.737677L87.732 35.1584Z" fill="#161513" stroke="white"/>
</svg>
