<svg width="100" height="100" viewBox="0 0 100 100" fill="none" xmlns="http://www.w3.org/2000/svg">
<path d="M25.7291 100C25.624 100 25.5194 99.9857 25.4185 99.9566C25.2298 99.9021 25.0588 99.7989 24.9228 99.6574C24.7867 99.5158 24.6904 99.341 24.6435 99.1504L0.479501 1.38555C0.432202 1.19529 0.435855 0.995929 0.490093 0.807521C0.544331 0.619113 0.64724 0.448297 0.788479 0.312245C0.930037 0.176359 1.10483 0.0800192 1.29535 0.0328556C1.48587 -0.014308 1.68543 -0.0106389 1.87409 0.0435022L98.7439 27.9195C98.9322 27.9735 99.103 28.0759 99.2393 28.2165C99.3756 28.3571 99.4726 28.531 99.5205 28.7208C99.568 28.911 99.5644 29.1104 99.5102 29.2989C99.4559 29.4873 99.3529 29.6581 99.2115 29.7941L26.5041 99.6845C26.2967 99.8865 26.0187 99.9997 25.7291 100ZM3.11669 2.72595L26.3504 96.735L96.2587 29.527L3.11669 2.72595ZM62.0536 65.0715C61.949 65.0714 61.8449 65.0562 61.7446 65.0264L13.3398 51.0867C13.1512 51.0327 12.9802 50.9298 12.8441 50.7886C12.708 50.6473 12.6117 50.4726 12.5648 50.2821C12.5174 50.0916 12.521 49.892 12.5752 49.7033C12.6295 49.5146 12.7324 49.3435 12.8738 49.2072L49.2067 14.2519C49.3481 14.1158 49.5228 14.0191 49.7133 13.9717C49.9038 13.9242 50.1035 13.9276 50.2923 13.9815C50.4809 14.0361 50.6518 14.1394 50.7878 14.2809C50.9238 14.4224 51.0202 14.5972 51.0672 14.7878L63.1409 63.6843C63.1878 63.875 63.1838 64.0747 63.1293 64.2633C63.0747 64.452 62.9716 64.623 62.8302 64.7593C62.6214 64.9597 62.3431 65.0716 62.0536 65.0715ZM15.82 49.4759L60.5037 62.344L49.3587 17.2048L15.82 49.4759ZM37.9698 57.7619C37.8647 57.7623 37.7601 57.7477 37.6591 57.7185C37.4703 57.6644 37.2992 57.5613 37.1631 57.4197C37.027 57.2781 36.9307 57.1031 36.8842 56.9123L30.8866 32.6218C30.8398 32.4313 30.8439 32.232 30.8985 32.0436C30.953 31.8553 31.056 31.6845 31.1973 31.5484C31.3385 31.4126 31.513 31.3162 31.7032 31.269C31.8935 31.2218 32.0928 31.2255 32.2812 31.2797L56.3316 38.1803C56.5207 38.2337 56.6922 38.3364 56.8287 38.4777C56.9651 38.6191 57.0616 38.794 57.1082 38.9848C57.1561 39.1751 57.1527 39.3746 57.0984 39.5631C57.0441 39.7516 56.9409 39.9224 56.7993 40.0581L38.7464 57.4531C38.5372 57.6525 38.2589 57.7631 37.9698 57.7619ZM33.5221 33.9605L38.5911 54.4919L53.8497 39.7927L33.5221 33.9605ZM31.9705 33.5014C31.866 33.5019 31.7619 33.4873 31.6616 33.458L7.61112 26.5575C7.42203 26.504 7.25051 26.4014 7.11407 26.26C6.97763 26.1187 6.88115 25.9437 6.83449 25.7529C6.78667 25.5627 6.79007 25.3631 6.84434 25.1746C6.89861 24.9861 7.00181 24.8153 7.14348 24.6796L25.198 7.28793C25.3399 7.15205 25.515 7.05573 25.7058 7.00857C25.8965 6.96142 26.0964 6.96508 26.2853 7.01919C26.4739 7.07381 26.6448 7.17707 26.7808 7.31859C26.9168 7.4601 27.0132 7.6349 27.0602 7.82543L33.0561 32.116C33.1034 32.3062 33.0998 32.5056 33.0456 32.694C32.9913 32.8824 32.8884 33.0532 32.7472 33.1893C32.5384 33.3898 32.2601 33.5017 31.9705 33.5014ZM10.0913 24.945L30.419 30.7773L25.35 10.2458L10.0913 24.945ZM80.063 47.3477C79.9585 47.3481 79.8544 47.3335 79.7541 47.3043L55.7036 40.4053C55.5149 40.3511 55.3438 40.2482 55.2075 40.107C55.0712 39.9658 54.9745 39.7912 54.927 39.6008C54.8796 39.4103 54.8831 39.2106 54.9374 39.0219C54.9916 38.8332 55.0946 38.6621 55.236 38.5258L73.2989 21.1341C73.4405 20.9984 73.6153 20.9022 73.8058 20.855C73.9963 20.8078 74.1958 20.8114 74.3845 20.8654C74.5731 20.9202 74.7441 21.0235 74.8804 21.165C75.0167 21.3064 75.1134 21.4811 75.1611 21.6716L81.1487 45.9622C81.1954 46.1526 81.1913 46.352 81.1368 46.5403C81.0823 46.7287 80.9793 46.8994 80.838 47.0355C80.6309 47.2355 80.3543 47.3473 80.0664 47.3477H80.063ZM58.1838 38.7912L78.5131 44.6235L73.4442 24.092L58.1838 38.7912ZM43.964 82.0692C43.8595 82.0696 43.7554 82.055 43.655 82.0258L19.6046 75.1269C19.4159 75.0727 19.2448 74.9698 19.1085 74.8285C18.9722 74.6873 18.8754 74.5127 18.828 74.3223C18.781 74.1318 18.7849 73.9323 18.8391 73.7437C18.8933 73.5551 18.996 73.3839 19.137 73.2473L37.1898 55.8557C37.3313 55.7197 37.5061 55.6232 37.6966 55.5761C37.8872 55.5289 38.0868 55.5326 38.2754 55.5869C38.4641 55.6418 38.6351 55.7451 38.7713 55.8865C38.9076 56.028 39.0044 56.2027 39.0521 56.3932L45.048 80.6837C45.0951 80.8741 45.0911 81.0736 45.0366 81.262C44.9821 81.4504 44.8788 81.6212 44.7373 81.757C44.531 81.9562 44.2558 82.068 43.969 82.0692H43.964ZM22.0848 73.5127L42.4141 79.345L37.3451 58.8136L22.0848 73.5127Z" fill="#161513"/>
</svg>
