<svg width="100" height="100" viewBox="0 0 100 100" fill="none" xmlns="http://www.w3.org/2000/svg">
<path d="M7.10449 49.9988C7.10449 66.9768 16.9715 81.6492 31.2793 88.6022L10.8182 32.5425C8.43815 37.877 7.10449 43.7804 7.10449 49.9988Z" fill="#161513"/>
<path d="M78.9556 47.8345C78.9556 42.5334 77.0514 38.8623 75.4182 36.0048C73.2439 32.4716 71.2059 29.4795 71.2059 25.9463C71.2059 22.0034 74.1964 18.3331 78.4088 18.3331C78.5989 18.3331 78.7793 18.3567 78.9646 18.3673C71.3332 11.376 61.1659 7.10742 49.9987 7.10742C35.0134 7.10742 21.8294 14.7958 14.1597 26.4409C15.166 26.4711 16.1145 26.4924 16.92 26.4924C21.4066 26.4924 28.3516 25.948 28.3516 25.948C30.6639 25.8117 30.9365 29.2078 28.6267 29.4812C28.6267 29.4812 26.303 29.7546 23.7173 29.8901L39.3376 76.3507L48.7246 48.1985L42.0416 29.8884C39.7318 29.753 37.5436 29.4795 37.5436 29.4795C35.2321 29.3441 35.5031 25.81 37.8146 25.9463C37.8146 25.9463 44.8983 26.4907 49.1131 26.4907C53.5989 26.4907 60.5448 25.9463 60.5448 25.9463C62.8587 25.81 63.1304 29.2061 60.8198 29.4795C60.8198 29.4795 58.4912 29.753 55.9104 29.8884L71.4115 75.9973L75.69 61.7004C77.5444 55.7677 78.9556 51.5064 78.9556 47.8345Z" fill="#161513"/>
<path d="M50.7516 53.7505L37.8818 91.1467C41.7245 92.2763 45.7883 92.8942 49.999 92.8942C54.9941 92.8942 59.7844 92.0306 64.2432 90.4628C64.1282 90.2791 64.0237 90.0841 63.938 89.8719L50.7516 53.7505Z" fill="#161513"/>
<path d="M87.6364 29.4199C87.8209 30.7862 87.9254 32.2529 87.9254 33.8305C87.9254 38.1832 87.1125 43.0761 84.6639 49.1942L71.5615 87.0752C84.3137 79.6391 92.8911 65.8237 92.8911 49.9997C92.8919 42.5424 90.9869 35.5298 87.6364 29.4199Z" fill="#161513"/>
<path d="M49.9987 0C22.4285 0 -0.00292969 22.4293 -0.00292969 49.9988C-0.00292969 77.5716 22.4285 100 49.9987 100C77.5681 100 100.003 77.5716 100.003 49.9988C100.002 22.4293 77.5681 0 49.9987 0ZM49.9987 97.7082C23.6928 97.7082 2.28976 76.3057 2.28976 49.9988C2.28976 23.6935 23.692 2.29263 49.9987 2.29263C76.3038 2.29263 97.7052 23.6935 97.7052 49.9988C97.7052 76.3057 76.3038 97.7082 49.9987 97.7082Z" fill="#161513"/>
</svg>
