<svg width="78" height="100" viewBox="0 0 78 100" fill="none" xmlns="http://www.w3.org/2000/svg">
<path d="M54.961 21.0788C47.849 14.2328 41.1022 7.56679 39.0959 0C37.0896 7.56679 30.3428 14.2343 23.2309 21.0803C12.6545 31.5301 0.619818 43.4207 0.619818 61.2573C0.0725123 82.1569 17.0314 99.6335 38.1843 99.9942C59.3371 100.355 77.0255 83.7791 77.3906 62.8795V61.258C77.5721 43.4207 65.5374 31.5301 54.961 21.0796V21.0788ZM20.3137 64.6796C19.2199 66.1211 18.126 67.7426 17.3958 69.3641C17.2128 69.5448 17.0306 69.9048 16.667 69.9048L16.4848 69.9033C15.5732 69.9033 14.6607 68.2818 14.6607 68.2818C14.4778 67.9211 14.1134 67.3818 13.932 67.0211L13.7491 66.6618C11.3777 61.6158 13.384 54.5905 13.384 54.5905C14.2949 51.1682 15.9368 47.7437 17.9431 44.8615C19.2191 43.0592 20.6788 41.2584 22.137 39.4562L23.9611 41.2584L32.5321 49.9067C32.8972 50.2675 32.8972 50.8067 32.5321 51.1675L23.596 61.0773L20.313 64.6788L20.3137 64.6796ZM39.4611 89.5429C32.1669 89.5429 26.1496 83.5969 26.331 76.3909C26.331 73.1471 27.6071 70.0856 29.6141 67.7426C32.3499 64.4988 35.8144 61.2565 39.644 56.9328C44.0202 61.6173 46.9381 64.6796 49.6739 68.2841C49.8568 68.4648 50.039 68.8248 50.2212 69.1848C51.6802 71.3463 52.5911 73.8693 52.5911 76.5724C52.7725 83.7784 46.7559 89.5444 39.4611 89.5444V89.5429ZM64.4435 68.6426C64.2606 69.1841 63.7148 69.5433 63.1675 69.7233L62.9846 69.7248C62.4373 69.5441 62.0737 69.1841 61.7085 68.8241C59.3386 65.4018 56.7858 62.158 53.8679 59.275L50.4041 55.672L38.7331 43.7815C36.3632 41.6199 33.9918 39.0969 31.8033 36.7547C31.8033 36.5747 31.6211 36.5747 31.6211 36.5747C31.256 36.0339 30.8924 35.4939 30.7095 34.7724V34.4117C30.3444 32.4294 31.0746 30.4479 32.5336 29.0064C34.7213 26.8449 37.0927 24.5019 39.2804 22.1604C41.6503 24.6826 44.2031 27.2049 46.7575 29.7271C51.8631 34.4117 56.4222 39.6369 60.6162 45.2222C64.0799 50.086 65.904 55.672 65.904 61.618C65.5382 63.7796 65.173 66.3018 64.4443 68.6433L64.4435 68.6426Z" fill="#009CDE"/>
</svg>
