<svg width="104" height="100" viewBox="0 0 104 100" fill="none" xmlns="http://www.w3.org/2000/svg">
<path d="M18.8802 0H85.1195C95.1622 0 103.282 8.11966 103.282 18.1624V81.8376C103.282 91.8803 95.1622 100 85.1195 100H18.8802C8.83743 100 0.717773 91.8803 0.717773 81.8376V18.1624C0.717773 8.11966 8.83743 0 18.8802 0Z" fill="#330000"/>
<path d="M50.2906 59.829H34.3931L31.1453 69.8717C31.0598 70.2564 30.7179 70.5128 30.3333 70.47H22.2991C21.829 70.47 21.7008 70.2136 21.829 69.7008L35.5897 30.0854C35.7179 29.6581 35.8461 29.188 36.0171 28.6752C36.188 27.7777 36.2735 26.8376 36.2735 25.8974C36.2308 25.6837 36.4017 25.47 36.6154 25.4273H47.6837C48.0256 25.4273 48.1966 25.5555 48.2393 25.7692L63.8376 69.7863C63.9658 70.2564 63.8376 70.47 63.4102 70.47H54.4786C54.1795 70.5128 53.8803 70.2991 53.7949 70L50.2906 59.829ZM36.8718 51.1538H47.7265C47.4701 50.2564 47.1282 49.188 46.7436 48.0769C46.359 46.923 45.9743 45.6837 45.5897 44.4017C45.1624 43.0769 44.7778 41.7948 44.3504 40.47C43.9231 39.1453 43.5384 37.9059 43.1966 36.6666C42.8547 35.47 42.5555 34.3589 42.2564 33.3333H42.1709C41.7863 35.1709 41.3162 37.0085 40.7179 38.8461C40.0769 40.8974 39.4359 43.0341 38.7521 45.1709C38.1538 47.3504 37.5128 49.3589 36.8718 51.1538ZM73.3675 32.9059C71.9572 32.9487 70.5897 32.3931 69.5641 31.4102C68.5812 30.3418 68.0684 28.9316 68.1111 27.4786C68.0684 26.0256 68.6239 24.6581 69.6496 23.6752C70.6752 22.6923 72.0427 22.1794 73.453 22.1794C75.1196 22.1794 76.4017 22.6923 77.3419 23.6752C78.282 24.7008 78.7948 26.0683 78.7521 27.4786C78.7948 28.9316 78.282 30.3418 77.2564 31.4102C76.2735 32.4359 74.8205 32.9914 73.3675 32.9059ZM68.5812 70V37.094C68.5812 36.6666 68.7521 36.4957 69.1367 36.4957H77.5983C77.9829 36.4957 78.1538 36.7094 78.1538 37.094V70C78.1538 70.47 77.9829 70.6837 77.5983 70.6837H69.2222C68.7949 70.6837 68.5812 70.4273 68.5812 70Z" fill="#FF9A00"/>
</svg>
