<svg width="112" height="100" viewBox="0 0 112 100" fill="none" xmlns="http://www.w3.org/2000/svg">
<path d="M55.9992 39.4187C57.3956 39.4172 58.7786 39.6897 60.0692 40.2205C61.3598 40.7514 62.5327 41.5302 63.5208 42.5124C64.5089 43.4947 65.2929 44.6611 65.828 45.9451C66.3631 47.2291 66.6387 48.6055 66.6392 49.9956C66.6392 51.3852 66.3642 52.7612 65.83 54.045C65.2957 55.3288 64.5126 56.4953 63.5254 57.4778C62.5383 58.4604 61.3663 59.2397 60.0766 59.7713C58.7868 60.3029 57.4045 60.5764 56.0085 60.5761C54.612 60.5774 53.2288 60.3046 51.9382 59.7734C50.6476 59.2423 49.4747 58.4631 48.4868 57.4805C47.4988 56.4978 46.7151 55.331 46.1803 54.0467C45.6456 52.7624 45.3704 51.3858 45.3704 49.9956C45.3714 47.1901 46.4916 44.4998 48.4848 42.5164C50.478 40.5329 53.1809 39.4187 55.9992 39.4187ZM55.9992 76.4517C41.4368 76.4517 27.7032 73.8929 17.3294 69.2456C6.28058 64.2977 0.196533 57.4611 0.196533 49.9993C0.196533 42.5375 6.28058 35.7027 17.3294 30.753C27.7032 26.1057 41.4368 23.5469 55.9992 23.5469C70.5615 23.5469 84.297 26.1057 94.6708 30.753C105.72 35.7027 111.804 42.53 111.804 49.9956C111.804 57.4611 105.72 64.294 94.6708 69.2418C84.297 73.8854 70.5634 76.4517 55.9992 76.4517ZM55.9992 28.8363C42.1718 28.8363 29.2125 31.2308 19.5099 35.5777C10.6135 39.5624 5.5175 44.8201 5.5175 49.9956C5.5175 55.1711 10.621 60.4324 19.5174 64.4172C29.22 68.764 42.1793 71.1586 56.0067 71.1586C69.834 71.1586 82.7952 68.764 92.4978 64.4172C101.394 60.4324 106.498 55.1767 106.498 49.9956C106.498 44.8145 101.394 39.5587 92.4978 35.5739C82.7877 31.2308 69.8265 28.8363 55.9992 28.8363ZM76.5012 100C71.2177 100 65.0887 97.6203 58.5922 92.9618C49.362 86.3417 40.2688 75.7817 32.9867 63.2264C25.7045 50.6712 21.0642 37.5505 19.9205 26.2849C18.7018 14.2859 21.6079 5.62205 28.0988 1.89113C34.5897 -1.83979 43.578 -0.0125912 53.4099 7.03864C62.6401 13.6569 71.7333 24.2095 79.0154 36.774C86.2975 49.3386 90.9379 62.4481 92.0816 73.7137C93.3003 85.7146 90.3942 94.3765 83.9033 98.1075C81.7003 99.3729 79.2123 100 76.5012 100ZM35.499 5.30663C33.7122 5.30663 32.1148 5.6911 30.7555 6.47312C26.2558 9.06368 24.2271 16.0906 25.2077 25.753C26.2783 36.2906 30.6749 48.6592 37.582 60.5799C44.4892 72.5005 53.0574 82.4764 61.6914 88.6691C69.6072 94.3448 76.7299 96.116 81.2372 93.5217C85.7444 90.9274 87.7656 83.9061 86.785 74.2419C85.7144 63.7042 81.3178 51.3356 74.4107 39.415C67.5035 27.4943 58.9353 17.5203 50.3013 11.3314C44.7741 7.36713 39.6407 5.30663 35.499 5.30663ZM35.499 100C32.7879 100 30.2999 99.3729 28.0988 98.1075C21.606 94.3747 18.7018 85.7146 19.9205 73.7137C21.0642 62.4481 25.7045 49.3293 32.9867 36.774C40.2688 24.2188 49.362 13.6569 58.5922 7.03864C68.4222 -0.0125912 77.4105 -1.83979 83.9033 1.89113C90.3961 5.62205 93.3003 14.2859 92.0816 26.2849C90.9379 37.5505 86.2975 50.6712 79.0154 63.2264C71.7333 75.7817 62.6401 86.3417 53.4099 92.9618C46.9115 97.6203 40.7825 100 35.499 100ZM76.5012 5.30663C72.367 5.30663 67.2261 7.35966 61.6895 11.3314C53.0649 17.5222 44.4948 27.4981 37.5802 39.4187C30.6655 51.3394 26.2689 63.708 25.2058 74.2456C24.2252 83.9098 26.2464 90.9368 30.7536 93.5255C35.2609 96.1142 42.378 94.3448 50.2995 88.6728C58.924 82.4801 67.4942 72.5061 74.4088 60.5836C81.3234 48.6611 85.7201 36.2944 86.7831 25.7567C87.7637 16.0944 85.7426 9.06741 81.2353 6.47686C79.8854 5.69111 78.2861 5.30663 76.5012 5.30663Z" fill="#109ECA"/>
</svg>
