<svg width="112" height="100" viewBox="0 0 112 100" fill="none" xmlns="http://www.w3.org/2000/svg">
<path d="M24.8574 3.29241L56 0L87.1426 3.29241L111.253 35.6584L56 99.9999L0.74707 35.6584L24.8574 3.29241Z" fill="#FDB300"/>
<path d="M23.1273 35.6584L56 99.9999L0.74707 35.6584H23.1273Z" fill="#EA6C00"/>
<path d="M88.8727 35.6584L55.9999 99.9999L111.253 35.6584H88.8727Z" fill="#EA6C00"/>
<path d="M23.1274 35.6584H88.873L56.0002 99.9999L23.1274 35.6584Z" fill="#FDAD00"/>
<path d="M56.0002 0L24.8575 3.29236L23.1274 35.6584L56.0002 0Z" fill="#FDD231"/>
<path d="M55.9998 0L87.1425 3.29236L88.8726 35.6584L55.9998 0Z" fill="#FDD231"/>
<path d="M111.253 35.6585L87.1424 3.29248L88.8727 35.6585H111.253Z" fill="#FDAD00"/>
<path d="M0.74707 35.6585L24.8573 3.29248L23.1273 35.6585H0.74707Z" fill="#FDAD00"/>
<path d="M56.0002 0L23.1274 35.6584H88.873L56.0002 0Z" fill="#FEEEB7"/>
</svg>
