<svg width="104" height="100" viewBox="0 0 104 100" fill="none" xmlns="http://www.w3.org/2000/svg">
<path d="M18.8802 0H85.1195C95.1622 0 103.282 8.11966 103.282 18.1624V81.8376C103.282 91.8803 95.1622 100 85.1195 100H18.8802C8.83743 100 0.717773 91.8803 0.717773 81.8376V18.1624C0.717773 8.11966 8.83743 0 18.8802 0Z" fill="#470137"/>
<path d="M54.6493 26.2819L41.8288 47.4357L55.504 69.8716C55.5895 70.0426 55.6322 70.2135 55.5895 70.3845C55.5468 70.5554 55.3758 70.4272 55.1194 70.4699H45.3331C44.6493 70.4699 44.1792 70.4272 43.8801 69.9998C42.9827 68.205 42.0425 66.4528 41.1451 64.658C40.2476 62.9058 39.2647 61.111 38.2391 59.2733C37.2134 57.4357 36.1878 55.5981 35.1621 53.7178H35.0767C34.1792 55.5554 33.1963 57.393 32.2134 59.2306C31.2305 61.0682 30.2476 62.9058 29.3074 64.7007C28.3245 66.4956 27.3416 68.3332 26.3587 70.0853C26.1878 70.5127 25.8459 70.5554 25.3758 70.5554H15.9741C15.8032 70.5554 15.675 70.6409 15.675 70.4272C15.6322 70.2563 15.675 70.0853 15.7604 69.9571L29.051 48.1622L16.1023 26.2392C15.9741 26.0682 15.9314 25.8973 16.0168 25.8118C16.1023 25.6836 16.2733 25.6409 16.4442 25.6409H26.1451C26.3587 25.6409 26.5724 25.6836 26.7433 25.7263C26.9143 25.8118 27.0425 25.94 27.1707 26.111C27.9827 27.9486 28.9228 29.7862 29.9057 31.6238C30.9314 33.4614 31.9143 35.2563 32.9827 37.0511C34.0083 38.846 34.9485 40.6409 35.8459 42.4785H35.9314C36.8288 40.5981 37.769 38.7605 38.7092 36.9657C39.6493 35.1708 40.6322 33.3759 41.6151 31.581C42.598 29.7862 43.5382 27.9486 44.4784 26.1964C44.5211 26.0255 44.6066 25.8545 44.7348 25.7691C44.9057 25.6836 45.0767 25.6409 45.2904 25.6836H54.3074C54.5211 25.6409 54.7348 25.7691 54.7775 25.9827C54.8203 26.0255 54.7348 26.1964 54.6493 26.2819Z" fill="#FF61F6"/>
<path d="M74.393 71.3676C71.2306 71.4103 68.0682 70.7693 65.2049 69.4445C62.5126 68.2052 60.2904 66.1539 58.7519 63.6325C57.1707 61.0257 56.4015 57.7778 56.4015 53.889C56.3588 50.7266 57.1707 47.6069 58.7519 44.8719C60.3759 42.0941 62.7263 39.7864 65.5468 38.2479C68.5383 36.5813 72.128 35.7693 76.3588 35.7693C76.5724 35.7693 76.8716 35.7693 77.2562 35.812C77.6408 35.8548 78.0682 35.8548 78.581 35.8975V22.3932C78.581 22.0941 78.7092 21.9231 79.0083 21.9231H87.6836C87.8972 21.8804 88.0682 22.0514 88.1109 22.2223C88.1109 22.265 88.1109 22.3078 88.1109 22.3078V62.9915C88.1109 63.7607 88.1536 64.6154 88.1964 65.5556C88.2818 66.4531 88.3246 67.3078 88.3673 68.0343C88.3673 68.3334 88.2391 68.5898 87.94 68.718C85.7177 69.6582 83.3673 70.3419 80.9742 70.7693C78.7947 71.1539 76.6152 71.3676 74.393 71.3676ZM78.581 62.8206V44.0172C78.1964 43.9317 77.8118 43.8462 77.4271 43.8035C76.9571 43.7608 76.487 43.718 76.0169 43.718C74.3502 43.718 72.6836 44.0599 71.1878 44.8291C69.7348 45.5556 68.4955 46.624 67.5553 47.9915C66.6152 49.359 66.1451 51.1966 66.1451 53.4189C66.1024 54.9146 66.3588 56.4103 66.8716 57.8206C67.2989 58.9744 67.94 60.0001 68.7947 60.8548C69.6066 61.624 70.5895 62.2223 71.7007 62.5642C72.8545 62.9488 74.0511 63.1197 75.2477 63.1197C75.8887 63.1197 76.487 63.077 77.0425 63.0343C77.5981 63.077 78.0682 62.9915 78.581 62.8206Z" fill="#FF61F6"/>
</svg>
