<svg width="96" height="100" viewBox="0 0 96 100" fill="none" xmlns="http://www.w3.org/2000/svg">
<path d="M50.3055 4.77459C49.8358 4.49244 49.4451 4.27238 49.0628 4.0382C48.6467 3.78427 48.6128 3.57829 48.9688 3.23407C49.195 3.01831 49.4448 2.82899 49.7137 2.66978C50.918 1.93286 52.2737 1.47912 53.6785 1.34274C54.1209 1.30136 54.6544 1.37847 55.0292 1.59949C58.406 3.58675 62.027 5.06803 65.556 6.73928C68.6294 8.19422 71.5356 9.89274 74.222 12.0182C76.4312 13.7657 78.71 15.4181 80.7079 17.4139C87.6712 24.3678 91.9964 32.6962 93.6834 42.3989C94.2886 45.7938 94.5026 49.247 94.3212 52.6907C94.0792 56.9917 93.35 61.2512 92.1476 65.3873C90.6176 70.7457 87.9861 75.7248 84.4219 80.0054C81.5847 83.4156 78.2704 86.3977 74.5817 88.8591C67.5708 93.5701 59.8582 96.5016 51.5453 97.8973C47.2556 98.6167 42.9413 98.8923 38.5999 98.6271C32.2446 98.2396 26.1381 96.858 20.445 93.9171C15.4752 91.3496 11.3235 87.8396 8.25288 83.1212C6.03801 79.7176 4.58397 75.9819 3.5498 72.0742C2.68846 68.8145 2.18218 65.4908 1.90414 62.1332C1.41101 56.1893 1.68716 50.2783 2.57574 44.388C3.62494 37.4359 5.48758 30.7227 8.5018 24.3556C10.4969 20.1441 12.9644 16.2486 16.283 12.9315C19.533 9.683 23.4104 7.74653 27.951 7.00637C32.6776 6.23423 37.4248 5.6897 42.1955 5.32855C44.8152 5.13105 47.4397 5.00032 50.0612 4.83856C50.1439 4.82253 50.2255 4.80115 50.3055 4.77459ZM7.69682 54.4485L7.57095 54.4598C7.78135 57.2051 7.93164 59.956 8.21907 62.6919C8.56256 66.0098 9.28943 69.2767 10.3851 72.4269C11.4183 75.3829 12.7258 78.1949 14.767 80.6092C17.4571 83.7946 20.8442 86.0273 24.5977 87.7353C30.5594 90.4486 36.864 91.6778 43.3706 91.9505C47.5611 92.1244 51.7578 91.8193 55.8793 91.0411C62.4056 89.8184 68.0545 86.8907 72.9042 82.3829C77.2353 78.3567 80.566 73.6034 83.0383 68.2445C86.5456 60.6416 88.1706 52.6775 87.4474 44.2931C86.8941 37.8658 84.8962 31.9435 81.154 26.6513C79.3356 24.0791 77.2437 21.7429 74.7048 19.8798C72.1424 17.9988 69.3104 16.5467 66.4784 15.1125C66.3196 15.0325 66.0641 15.0664 65.881 15.1275C65.0675 15.3993 64.2757 15.7388 63.4538 15.9824C62.5408 16.2533 61.6757 16.1508 60.7947 15.6787C58.4257 14.4109 56.0321 13.1882 53.6137 12.0107C51.3716 10.9254 48.9829 10.2454 46.4985 10.1138C43.7914 9.96986 41.0937 10.267 38.4205 10.7204C34.3383 11.4135 30.4148 12.6474 26.558 14.1428C23.3118 15.4012 20.5277 17.2784 18.2302 19.8939C15.1699 23.3737 13.0781 27.4179 11.5123 31.7375C8.8578 39.0733 7.74285 46.6735 7.69682 54.4485Z" fill="#161513"/>
<path d="M47.9307 74.2263C41.9079 74.1765 36.1725 72.9445 30.8767 69.9819C27.5469 68.1188 24.7356 65.6792 22.7987 62.3348C21.3062 59.7588 20.6017 56.9674 20.6139 53.9926C20.6139 53.3597 20.8675 53.039 21.4302 52.8998C21.9928 52.7606 22.3545 52.8998 22.6269 53.5167C22.8607 54.0415 23.0129 54.604 23.2064 55.1476C24.0518 57.5185 25.6082 59.3741 27.4971 60.9683C30.9594 63.8913 34.9881 65.6782 39.3399 66.7993C42.6591 67.6664 46.0935 68.0072 49.5181 67.8094C56.9001 67.3617 63.2526 64.6569 68.2506 59.0732C68.8236 58.4336 69.3318 57.7367 69.87 57.0671C70.0466 56.848 70.2129 56.6185 70.4054 56.4144C70.6938 56.1069 71.0254 55.9554 71.4537 56.1605C71.882 56.3655 71.8698 56.7116 71.8294 57.0803C71.6369 58.7763 71.2046 60.4362 70.5454 62.0103C68.6029 66.5943 65.1425 69.6339 60.7043 71.6579C56.9471 73.3677 52.5342 74.2367 47.9307 74.2263Z" fill="#161513"/>
<path d="M35.6361 41.5074C35.559 43.1278 35.1411 44.4756 33.7114 45.2439C31.1603 46.6142 28.07 45.2439 27.4181 42.4328C27.2321 41.6418 27.2024 40.8219 27.3308 40.0195C27.7544 37.5874 29.2094 36.6516 31.5989 36.7635C33.6447 36.8576 35.188 38.3878 35.5158 40.4935C35.5769 40.8669 35.6051 41.2403 35.6361 41.5074Z" fill="#161513"/>
<path d="M66.5909 41.644C66.5844 44.2952 64.0905 46.5204 61.4877 46.195C60.6057 46.085 59.8909 45.6496 59.3405 44.9724C58.248 43.635 57.8517 42.0945 58.1945 40.4007C58.5853 38.4736 60.7438 37.06 62.8365 37.3121C64.9969 37.5754 66.5975 39.4197 66.5909 41.644Z" fill="#161513"/>
<path d="M0.488479 56.1725C0.488479 54.6207 0.384216 53.0605 0.511962 51.5199C0.730819 48.8941 1.02576 46.2701 1.42027 43.665C1.76405 41.3843 2.2027 39.1102 2.75689 36.8718C3.34489 34.4989 4.03716 32.1449 4.83651 29.835C5.52314 27.8497 6.38636 25.9217 7.24206 24.004C8.47912 21.2239 10.0449 18.6282 11.8146 16.1537C13.1309 14.3027 14.6463 12.6022 16.3336 11.0826C19.1768 8.53482 22.424 6.71027 26.216 6.02842C28.8554 5.55347 31.5099 5.16033 34.1662 4.79448C36.1463 4.52268 38.1385 4.33459 40.128 4.14367C41.4937 4.012 42.8651 3.93677 44.2337 3.84178C45.2134 3.77406 46.194 3.72326 47.1728 3.64332C47.2958 3.63298 47.4978 3.50227 47.5128 3.40446C47.6828 2.28904 48.5601 1.79152 49.397 1.33538C50.6907 0.604462 52.1241 0.155749 53.6032 0.0186916C54.3985 -0.0619338 55.1983 0.119697 55.881 0.535961C58.6275 2.19405 61.6014 3.39974 64.4775 4.80013C66.8352 5.94753 69.174 7.13538 71.4697 8.40692C72.5424 9.00225 73.4854 9.8327 74.4755 10.57C75.6815 11.4645 76.9045 12.3382 78.0702 13.2824C80.4393 15.209 82.623 17.3536 84.5927 19.6881C86.2344 21.6391 87.7153 23.7203 89.0206 25.9113C89.8659 27.3136 90.593 28.7911 91.2909 30.2743C92.6393 33.1061 93.6655 36.0807 94.3502 39.1421C94.7945 41.1661 95.0283 43.237 95.3759 45.2835C95.7882 47.71 95.6201 50.1562 95.622 52.594C95.622 54.8041 95.219 56.9795 94.8837 59.1567C94.4347 62.0722 93.6917 64.92 92.7627 67.7236C91.5675 71.3161 89.8628 74.7178 87.7008 77.8245C85.3792 81.1563 82.6201 84.1599 79.4979 86.7545C75.9152 89.7442 71.9595 92.2551 67.7303 94.2238C64.408 95.7841 60.9814 97.0876 57.4102 97.9312C54.6242 98.5896 51.8063 99.1539 48.9753 99.5743C45.7723 100.05 42.5317 100.05 39.2929 99.9401C35.2821 99.8038 31.3709 99.0937 27.5047 98.0488C25.4054 97.4789 23.3934 96.6983 21.4199 95.8039C17.1808 93.8824 13.4443 91.2462 10.2826 87.8247C8.93189 86.3857 7.7466 84.7995 6.74893 83.096C6.15623 82.0671 5.50717 81.0607 5.02531 79.9801C3.87936 77.4173 2.84049 74.8027 2.22713 72.0537C1.74715 69.9075 1.3423 67.7425 0.989123 65.5718C0.769326 64.2194 0.674459 62.8444 0.586164 61.475C0.473448 59.7107 0.422726 57.9416 0.345703 56.1744L0.488479 56.1725ZM50.3504 4.72771C50.1456 4.75498 50.0893 4.76535 50.032 4.76911C47.4235 4.93087 44.8132 5.0616 42.2076 5.25816C37.4331 5.61931 32.6812 6.16478 27.9509 6.93786C23.4075 7.67991 19.5263 9.61638 16.2725 12.8677C12.9502 16.1876 10.4723 20.0831 8.48382 24.3031C4.51715 32.7233 2.50234 41.6457 1.82135 50.8926C1.51272 55.0055 1.56457 59.1375 1.97633 63.2413C2.30133 66.4389 2.83204 69.6037 3.69619 72.7045C4.72379 76.3893 6.13838 79.9115 8.22833 83.1298C11.2914 87.8398 15.43 91.3478 20.3857 93.9172C26.0948 96.8779 32.2209 98.267 38.596 98.6573C42.9412 98.9235 47.2592 98.6488 51.5518 97.9275C59.8543 96.5327 67.5603 93.6106 74.5647 88.9082C78.2719 86.439 81.6027 83.4458 84.4537 80.0215C88.0009 75.761 90.6239 70.8081 92.156 65.4778C93.3825 61.295 94.1254 56.985 94.3699 52.6325C94.548 49.2007 94.3341 45.7597 93.7321 42.3765C92.0633 32.86 87.8568 24.6435 81.1126 17.7272C79.0132 15.5828 76.6105 13.8082 74.2557 11.9582C71.5486 9.82988 68.6302 8.11724 65.5399 6.65477C62.0213 4.98917 58.4143 3.50978 55.046 1.53004C54.6487 1.2968 54.0747 1.23474 53.6042 1.28647C52.8573 1.35918 52.1243 1.53678 51.4269 1.81407C50.5858 2.17834 49.7808 2.62074 49.0222 3.13547C48.5751 3.43266 48.6465 3.70917 49.1077 3.98944C49.4787 4.2161 49.8554 4.43239 50.3504 4.72394V4.72771Z" fill="white"/>
<path d="M7.60059 54.4428C7.71988 46.6537 8.83577 39.0451 11.494 31.7064C13.0608 27.3802 15.1573 23.3361 18.2166 19.8497C20.5047 17.2455 23.2719 15.3664 26.5059 14.1127C30.3646 12.6135 34.289 11.374 38.375 10.6771C41.0661 10.2181 43.7806 9.91624 46.5056 10.0592C49.0079 10.1909 51.4125 10.8783 53.6687 11.9778C56.1109 13.1684 58.5343 14.4155 60.937 15.6908C61.7965 16.147 62.6446 16.1771 63.5191 15.9165C64.3401 15.672 65.1338 15.3344 65.9444 15.0522C66.091 15.0015 66.2957 14.9582 66.4141 15.0165C69.3841 16.5298 72.4172 17.9809 75.0237 20.0651C80.76 24.6499 84.4543 30.6155 86.3442 37.703C87.8471 43.346 88.0218 49.0594 87.1388 54.8105C85.9177 62.7398 82.9881 69.9769 78.2305 76.4418C74.1154 82.033 69.0253 86.4449 62.5441 89.1253C59.5168 90.3789 56.3447 91.0664 53.1154 91.5273C50.0443 91.9569 46.9414 92.1143 43.8426 91.9975C36.9256 91.7586 30.2406 90.4598 23.9501 87.4681C20.2192 85.6934 16.8828 83.3751 14.3034 80.0853C12.3657 77.6118 11.1267 74.7781 10.1527 71.8184C8.98606 68.2765 8.30882 64.6311 7.99227 60.9237C7.81099 58.7625 7.72927 56.6012 7.60059 54.4428ZM48.8594 74.2467C49.7518 74.1611 51.5336 74.0586 53.2958 73.8056C57.006 73.2761 60.5049 72.1052 63.6713 70.0578C68.3782 67.0125 71.1312 62.7135 71.8432 57.1307C71.894 56.7348 71.925 56.3426 71.4553 56.1319C70.9857 55.9213 70.6597 56.1216 70.3807 56.4498C70.0764 56.8072 69.8097 57.1956 69.5213 57.5652C64.4566 64.0546 57.7077 67.2833 49.594 67.8015C46.1186 68.0235 42.6873 67.6558 39.3143 66.7867C34.9606 65.6657 30.9282 63.8712 27.4668 60.9435C25.6164 59.3785 24.0853 57.5577 23.2343 55.2403C23.0192 54.6544 22.853 54.0469 22.5994 53.4779C22.3345 52.8844 21.9982 52.7461 21.4365 52.8769C20.8748 53.0076 20.6024 53.334 20.5987 53.9547C20.5817 56.9323 21.2834 59.7293 22.7731 62.3091C24.7166 65.6741 27.5429 68.126 30.8915 69.9957C36.1977 72.9563 41.9387 74.1865 48.8594 74.2467ZM35.6359 41.4509C35.604 41.1687 35.5749 40.7991 35.5148 40.4295C35.1691 38.3388 33.6362 36.8312 31.6101 36.7324C29.2149 36.6158 27.759 37.5535 27.3297 39.9818C27.2012 40.7847 27.2292 41.6048 27.4124 42.397C28.0539 45.2185 31.1423 46.5906 33.7057 45.2251C35.1541 44.4492 35.5693 43.0826 35.6359 41.4509ZM66.616 41.5957C66.616 39.3752 65.0023 37.53 62.84 37.2779C60.7858 37.039 58.6498 38.414 58.2327 40.3006C57.8467 42.0462 58.259 43.6291 59.4031 44.9984C59.9304 45.653 60.6928 46.0746 61.5269 46.1731C64.1316 46.4919 66.6141 44.2554 66.616 41.5957Z" fill="white"/>
</svg>
