<svg width="124" height="100" viewBox="0 0 124 100" fill="none" xmlns="http://www.w3.org/2000/svg">
<path d="M46.5226 56.8149C46.971 48.8294 50.8797 41.7734 56.8019 36.7877C62.5972 31.8866 70.3807 28.8867 78.9257 28.8867C87.4283 28.8867 95.2118 31.8823 101.007 36.7877C106.929 41.7734 110.821 48.8294 111.286 56.8149C111.735 65.0117 108.431 72.6592 102.657 78.3209C96.7346 84.0671 88.3589 87.7007 78.9257 87.7007C69.4924 87.7007 61.0744 84.0925 55.1945 78.3209C49.3992 72.6592 46.0996 65.054 46.5649 56.8572L46.5226 56.8149Z" fill="white"/>
<path d="M64.2462 55.8366C64.4766 51.7329 66.4852 48.1069 69.5286 45.5449C72.5067 43.0262 76.5066 41.4846 80.8978 41.4846C85.2672 41.4846 89.267 43.024 92.2451 45.5449C95.2885 48.1069 97.2884 51.7329 97.5275 55.8366C97.758 60.0488 96.0602 63.9788 93.0929 66.8883C90.0495 69.8412 85.7454 71.7085 80.8978 71.7085C76.0501 71.7085 71.7242 69.8542 68.7026 66.8883C65.7244 63.9788 64.0288 60.0706 64.2679 55.8583L64.2462 55.8366Z" fill="#161513"/>
<path d="M38.1603 64.5217C38.1886 66.1284 38.7016 69.255 39.4711 71.6868C41.0884 76.8544 43.8405 81.6312 47.6447 85.8217C51.5576 90.1425 56.3835 93.6165 61.9485 96.0918C67.7961 98.6756 74.1437 100 80.7304 100C87.3171 99.9913 93.6647 98.6452 99.5123 96.0266C105.077 93.5297 109.903 90.0557 113.816 85.7132C117.642 81.4792 120.381 76.7024 121.99 71.5348C122.805 68.9293 123.32 66.2804 123.527 63.6314C123.729 61.0259 123.644 58.3987 123.272 55.7715C122.546 50.669 120.772 45.8706 118.055 41.528C115.577 37.5112 112.36 34.0155 108.534 31.0626L108.542 31.0561L70.0656 1.52696C70.0308 1.50091 70.0026 1.47266 69.9656 1.44877C67.444 -0.487988 63.1833 -0.481464 60.4225 1.45964C57.6183 3.42246 57.2922 6.67065 59.7921 8.71163L59.7812 8.7225L75.8458 21.7718L26.9346 21.8239H26.8694C22.8261 21.8282 18.9349 24.4728 18.1741 27.8383C17.3828 31.2472 20.1305 34.0914 24.3478 34.0914L24.3413 34.1067L49.1229 34.0589L4.77679 67.9305C4.72027 67.9718 4.6594 68.0152 4.60723 68.0564C0.433473 71.2482 -0.914307 76.5678 1.71603 79.9116C4.38984 83.3204 10.0635 83.3421 14.2808 79.931L38.4103 60.1726C38.4103 60.1726 38.0581 62.8433 38.0864 64.4283L38.1603 64.5217ZM100.332 73.4455C95.3538 78.5045 88.3758 81.3923 80.8543 81.3923C73.3111 81.4053 66.3331 78.5697 61.3551 73.5107C58.9204 71.0355 57.1378 68.2128 56.0292 65.1947C54.9488 62.2201 54.5293 59.0718 54.8075 55.9018C55.0705 52.7969 55.9966 49.8222 57.4813 47.1516C58.9334 44.5244 60.9377 42.136 63.3941 40.1167C68.2418 36.1868 74.3937 34.0372 80.8283 34.0372C87.2846 34.0285 93.4365 36.1411 98.2841 40.0733C100.741 42.0795 102.74 44.4592 104.197 47.0865C105.682 49.7571 106.61 52.71 106.871 55.8366C107.145 59.0067 106.725 62.155 105.645 65.1296C104.54 68.1694 102.754 70.992 100.319 73.4672L100.332 73.4455Z" fill="#161513"/>
</svg>
