<svg width="122" height="46" viewBox="0 0 122 46" fill="none" xmlns="http://www.w3.org/2000/svg">
<path d="M27.191 20.7178C29.6422 20.7178 32.0926 20.7178 34.5423 20.7178C35.405 20.7178 35.7027 21.0397 35.5143 21.8777C35.0356 24.0639 34.5301 26.2501 34.021 28.4363C33.891 28.9902 33.5933 29.2064 33.0222 29.2222C32.5362 29.2343 32.0501 29.2222 31.5641 29.2222C30.9189 29.2222 30.863 29.2708 30.6819 29.8914C30.0649 32.0505 29.2422 34.1455 28.225 36.1476C27.1886 38.1577 25.9249 40.0026 24.2541 41.5463C21.9455 43.6839 19.1666 44.8001 16.0754 45.19C14.2625 45.4171 12.4435 45.4815 10.6269 45.2204C7.17487 44.726 4.60982 42.8702 2.72887 40.0038C1.44331 38.0399 0.768935 35.8415 0.420205 33.5399C-0.14481 29.8537 0.177183 26.2003 0.840621 22.5567C1.3694 19.5471 2.24397 16.6087 3.44698 13.7997C4.83825 10.5957 6.65238 7.67588 9.21985 5.26498C12.5192 2.16623 16.431 0.640756 20.9552 0.688528C22.9443 0.71039 24.8641 1.04318 26.6454 1.96625C29.2117 3.30226 30.7949 5.44839 31.7318 8.12649C32.5155 10.3674 32.7719 12.6932 32.7962 15.0495C32.8047 15.8147 32.5325 16.0831 31.7779 16.0843C28.8828 16.0891 25.9872 16.0891 23.0913 16.0843C22.4242 16.0843 22.31 15.9628 22.2407 15.262C22.1532 14.2904 22.1192 13.3187 21.7547 12.4017C21.1058 10.7354 19.7632 10.0831 18.0596 10.6248C16.9758 10.9686 16.1556 11.6742 15.4472 12.5256C14.3475 13.8458 13.6002 15.3726 12.9149 16.9308C11.859 19.3284 11.0607 21.8073 10.6792 24.404C10.2879 27.076 10.1202 29.759 10.7351 32.4201C10.843 32.8515 10.9978 33.2698 11.1968 33.6675C11.9416 35.2148 13.4447 35.9095 15.1288 35.5622C17.1677 35.1407 18.5481 33.8739 19.5262 32.1298C19.9284 31.4145 20.2091 30.625 20.4849 29.8477C20.6587 29.3618 20.5323 29.2404 20.005 29.2295C19.3367 29.2197 18.6684 29.204 18.0001 29.2295C17.2917 29.2598 16.8919 28.8116 17.079 28.0671C17.6076 25.9708 18.0511 23.8526 18.5371 21.7514C18.7291 20.9109 18.9758 20.7118 19.8324 20.7093C22.2853 20.7126 24.7381 20.7154 27.191 20.7178ZM77.6037 40.2722C77.5551 41.4649 77.4919 42.6564 77.4518 43.8491C77.43 44.5196 77.7228 44.8329 78.3874 44.8353C81.3425 44.8451 84.2992 44.8451 87.2576 44.8353C87.9332 44.8353 88.1738 44.5754 88.1798 43.9135C88.1932 42.6601 88.2066 41.4054 88.209 40.1484C88.2179 35.8391 88.224 31.5294 88.2272 27.2194C88.2329 18.9604 88.2365 10.7046 88.2382 2.45207C88.2382 1.62374 87.9866 1.35897 87.1446 1.35897C83.0133 1.35897 78.882 1.35896 74.7507 1.35046C74.1918 1.35046 73.843 1.5545 73.6243 2.07919C73.2416 2.99133 72.8223 3.8889 72.4092 4.79131C69.8843 10.3686 67.3593 15.9454 64.8344 21.5219C62.5136 26.6595 60.1964 31.7978 57.8829 36.9371C56.895 39.1233 55.9011 41.3192 54.9314 43.52C54.5523 44.3799 54.8707 44.8341 55.8209 44.8353C58.6958 44.8418 61.5715 44.8418 64.448 44.8353C65.3168 44.8353 65.5112 44.6847 65.8453 43.8637C66.3629 42.5908 66.9073 41.3289 67.3994 40.0463C67.589 39.5532 67.8648 39.3783 68.3909 39.382C71.2257 39.405 74.0593 39.3929 76.8965 39.3929H77.6025C77.6013 39.7597 77.6098 40.0184 77.5989 40.2759L77.6037 40.2722ZM78.735 13.3612C78.5478 17.5822 78.3599 21.8028 78.1712 26.023C78.1238 27.0724 78.08 28.123 78.0278 29.1724C77.9865 30.0044 77.8868 30.1039 77.0411 30.0991C75.4433 30.0869 73.8454 30.0639 72.2488 30.0384C71.6717 30.0299 71.5988 29.9303 71.8138 29.3898C72.7697 26.989 73.7312 24.5898 74.6984 22.1923C75.8568 19.3081 77.0164 16.4235 78.1772 13.5386C78.2987 13.2531 78.4397 12.9799 78.5721 12.7017L78.7362 12.7345C78.7313 12.9471 78.7386 13.156 78.7301 13.3649L78.735 13.3612ZM98.5409 44.8378C99.2967 44.8378 99.5129 44.6702 99.6733 43.9341C99.9856 42.5544 100.281 41.1698 100.58 39.7888C100.756 38.9799 100.718 38.8621 100.005 38.4783C98.8301 37.8443 97.6417 37.237 96.4679 36.6018C96.3306 36.5277 96.2516 36.3492 96.1447 36.218C96.3051 36.1294 96.4619 35.9678 96.6235 35.963C97.3306 35.9399 98.0403 35.963 98.7486 35.963C101.462 36.0006 104.168 36.014 106.825 35.3047C110.7 34.2723 114.033 32.363 116.698 29.3436C118.982 26.7566 120.443 23.7566 121.214 20.3996C121.93 17.2867 122.111 14.1519 121.502 11.0099C120.773 7.27508 118.74 4.5071 115.231 2.90632C113.175 1.98593 110.954 1.48664 108.701 1.4379C105.81 1.34924 102.913 1.37475 100.018 1.36382C99.2602 1.36382 99.033 1.57393 98.8629 2.33546C98.5968 3.51844 98.338 4.70265 98.067 5.8832C96.9588 10.7091 95.8495 15.5341 94.7389 20.3583C93.3966 26.2084 92.0552 32.0586 90.7145 37.9087C90.2674 39.8593 89.8218 41.8099 89.3779 43.7605C89.2285 44.42 89.4885 44.7734 90.1568 44.8329C90.3172 44.8463 90.48 44.8329 90.6428 44.8329H94.4679C95.8191 44.8499 97.18 44.8499 98.5312 44.8414L98.5409 44.8378ZM104.558 22.4279C105.174 19.7081 105.792 16.9887 106.41 14.2697C106.531 13.7268 106.461 13.5993 105.924 13.3175C104.726 12.6859 103.528 12.0528 102.332 11.4179C102.201 11.3659 102.081 11.2901 101.977 11.1945C101.813 10.9989 101.845 10.8107 102.116 10.7414C102.251 10.7184 102.389 10.7115 102.526 10.7208C104.45 10.7208 106.372 10.7208 108.296 10.7208C109.62 10.7208 110.496 11.3426 110.997 12.5754C111.403 13.5726 111.483 14.6122 111.458 15.6713C111.387 18.1745 110.879 20.5696 109.622 22.7595C108.734 24.3068 107.557 25.553 105.785 26.1068C104.993 26.3497 104.337 26.4068 103.688 26.2392C103.984 24.9494 104.263 23.6899 104.548 22.4316L104.558 22.4279ZM32.1692 31.6671C31.4207 31.6671 31.1485 31.9306 31.1181 32.68C31.0586 34.1594 31.1096 35.635 31.4316 37.0864C32.3259 41.1151 34.7124 43.7665 38.7222 44.89C40.9749 45.524 43.2654 45.6345 45.5813 45.3564C48.5826 44.992 51.2619 43.9074 53.4077 41.7285C55.426 39.6795 56.4807 37.1666 56.8294 34.327C57.3324 30.2254 56.4527 26.4991 53.9326 23.1809C52.7625 21.6421 51.3542 20.334 50.0079 18.964C48.9435 17.8794 47.9216 16.7559 47.167 15.4223C46.438 14.1373 46.1463 12.777 46.6214 11.3414C46.9969 10.2107 48.0285 9.61796 49.4161 9.65075C50.5462 9.67747 51.3068 10.258 51.6325 11.4483C51.7885 11.9925 51.867 12.5559 51.8657 13.122C51.8512 13.9722 52.4453 14.3195 53.1428 14.3159C55.7747 14.3062 58.4066 14.3159 61.0409 14.3086C61.8489 14.3086 62.1004 14.0244 62.1235 13.19C62.1727 11.6506 62.0091 10.1119 61.6375 8.61718C60.6946 4.86662 58.4297 2.30147 54.6848 1.20836C51.0188 0.145624 47.3432 0.250068 43.7964 1.71604C39.1353 3.64355 36.4572 7.17063 35.8618 12.1783C35.4293 15.8074 36.4159 19.1098 38.5034 22.0939C39.6809 23.7761 41.0867 25.2518 42.5327 26.7092C43.6907 27.8704 44.8219 29.0618 45.6251 30.512C46.4282 31.9622 46.6141 33.4974 45.9896 35.0666C45.6129 36.0201 44.6615 36.5411 43.5862 36.4573C42.574 36.3796 41.8486 35.8112 41.6189 34.7812C41.4876 34.1292 41.4241 33.4654 41.4294 32.8003C41.4221 32.0035 41.1621 31.6756 40.371 31.6719C39.0138 31.6719 37.6577 31.6719 36.3017 31.6719C34.9129 31.6695 33.5362 31.6659 32.1595 31.6707L32.1692 31.6671ZM116.307 42.3127C116.313 41.9732 116.251 41.6359 116.125 41.3207C115.999 41.0055 115.811 40.7188 115.572 40.4775C115.333 40.2363 115.048 40.0455 114.734 39.9164C114.419 39.7872 114.082 39.7224 113.743 39.7257C113.077 39.7205 112.436 39.9797 111.962 40.4463C111.487 40.9129 111.217 41.5488 111.211 42.2143C111.201 42.5533 111.259 42.8909 111.381 43.2072C111.503 43.5236 111.687 43.8124 111.922 44.0568C112.158 44.3012 112.439 44.4963 112.751 44.6306C113.062 44.7649 113.397 44.8357 113.737 44.839C114.41 44.8413 115.057 44.5774 115.537 44.1048C116.016 43.6323 116.29 42.9894 116.297 42.3163L116.307 42.3127ZM111.811 42.2155C111.838 40.9815 112.654 40.1641 113.824 40.2018C114.958 40.237 115.706 41.0738 115.699 42.2969C115.691 43.5418 114.912 44.3337 113.712 44.3155C112.513 44.2973 111.776 43.4896 111.802 42.2192L111.811 42.2155ZM112.721 43.6256H113.395C113.424 43.3086 113.451 43.0183 113.479 42.7026C114.29 42.5981 113.951 43.3779 114.254 43.6244H115.032L114.653 42.2702C114.615 42.3261 114.642 42.2702 114.683 42.2289C114.94 41.986 115.055 41.7078 114.903 41.3605C114.84 41.2103 114.733 41.0826 114.596 40.9938C114.459 40.9051 114.298 40.8593 114.135 40.8625C113.678 40.8419 113.219 40.8625 112.721 40.8625V43.6256ZM113.467 41.4151C113.652 41.4309 113.823 41.403 113.943 41.4698C114.039 41.522 114.15 41.7127 114.121 41.8002C114.02 42.1026 113.766 42.0625 113.467 41.9872V41.4151Z" fill="#161513"/>
</svg>
