<svg width="100" height="100" viewBox="0 0 100 100" fill="none" xmlns="http://www.w3.org/2000/svg">
<path d="M100 0H0V100H100V0Z" fill="#161513"/>
<path d="M67.175 78.1254C69.1893 81.4143 71.8099 83.8318 76.4449 83.8318C80.3385 83.8318 82.8258 81.8857 82.8258 79.1968C82.8258 75.9746 80.2703 74.8334 75.9845 72.9588L73.6353 71.9508C66.8544 69.0619 62.3496 65.4429 62.3496 57.7921C62.3496 50.7445 67.7195 45.3794 76.1115 45.3794C82.0861 45.3794 86.3814 47.4588 89.4766 52.9032L82.1591 57.6016C80.548 54.7127 78.8099 53.5746 76.1115 53.5746C73.3591 53.5746 71.6147 55.3207 71.6147 57.6016C71.6147 60.4207 73.3607 61.5619 77.3925 63.308L79.7417 64.3143C87.7258 67.7381 92.2337 71.2286 92.2337 79.0762C92.2337 87.5365 85.5877 92.1715 76.6623 92.1715C67.9353 92.1715 62.2972 88.0127 59.5385 82.5619L67.175 78.1254ZM33.9798 78.9397C35.456 81.5588 36.7988 83.773 40.0274 83.773C43.1147 83.773 45.0623 82.5651 45.0623 77.8683V45.9159H54.4591V77.9953C54.4591 87.7254 48.7544 92.154 40.4274 92.154C32.9036 92.154 28.5464 88.2603 26.3306 83.5707L33.9798 78.9397Z" fill="white"/>
</svg>
