<svg width="104" height="100" viewBox="0 0 104 100" fill="none" xmlns="http://www.w3.org/2000/svg">
<path d="M18.8802 0H85.1195C95.1622 0 103.282 8.11966 103.282 18.1624V81.8376C103.282 91.8803 95.1622 100 85.1195 100H18.8802C8.83743 100 0.717773 91.8803 0.717773 81.8376V18.1624C0.717773 8.11966 8.83743 0 18.8802 0Z" fill="#161513"/>
<path d="M23.7949 70.1283V26.154C23.7949 25.8548 23.9231 25.6839 24.2223 25.6839C24.9488 25.6839 25.6325 25.6839 26.6154 25.6412C27.6411 25.5984 28.7095 25.5984 29.8633 25.5557C31.0171 25.513 32.2565 25.513 33.5812 25.4702C34.906 25.4275 36.1881 25.4275 37.4701 25.4275C40.9744 25.4275 43.8804 25.8548 46.2736 26.7523C48.4103 27.4788 50.3761 28.6754 52 30.2566C53.3676 31.6241 54.4359 33.2907 55.1197 35.1283C55.7607 36.9232 56.1026 38.7608 56.1026 40.6839C56.1026 44.3591 55.2479 47.3933 53.5385 49.7865C51.8291 52.1796 49.4359 53.9745 46.6582 55.0001C43.7522 56.0685 40.5471 56.4531 37.0428 56.4531C36.0171 56.4531 35.3334 56.4531 34.906 56.4104C34.4787 56.3677 33.8804 56.3677 33.0684 56.3677V70.0856C33.1112 70.3848 32.8975 70.6412 32.5983 70.6839C32.5556 70.6839 32.5129 70.6839 32.4274 70.6839H24.3077C23.9659 70.6839 23.7949 70.513 23.7949 70.1283ZM33.1112 33.9318V48.2907C33.7095 48.3335 34.265 48.3762 34.7778 48.3762H37.0428C38.7095 48.3762 40.3761 48.1198 41.9573 47.607C43.3248 47.2224 44.5214 46.4104 45.4616 45.342C46.359 44.2736 46.7864 42.8207 46.7864 40.9403C46.8291 39.6155 46.4872 38.2907 45.8035 37.1369C45.077 36.0258 44.0513 35.1711 42.812 34.701C41.2308 34.06 39.5214 33.8036 37.7693 33.8463C36.6582 33.8463 35.6753 33.8463 34.8633 33.889C34.0086 33.8463 33.4103 33.889 33.1112 33.9318Z" fill="white"/>
<path d="M82.7689 45.684C81.4868 45.0002 80.1193 44.5302 78.6663 44.231C77.0851 43.8891 75.5039 43.6754 73.88 43.6754C73.0253 43.6327 72.1279 43.7609 71.3159 43.9746C70.7603 44.1028 70.2903 44.4019 69.9911 44.8293C69.7774 45.1712 69.6492 45.5985 69.6492 45.9831C69.6492 46.3678 69.8202 46.7524 70.0766 47.0943C70.4612 47.5643 70.974 47.949 71.5296 48.2481C72.5125 48.7609 73.5381 49.231 74.5638 49.6584C76.8715 50.4276 79.0937 51.496 81.145 52.778C82.5552 53.6755 83.7091 54.872 84.521 56.325C85.2048 57.6925 85.5467 59.1883 85.5039 60.7267C85.5467 62.7353 84.9484 64.7438 83.8373 66.4105C82.6407 68.1199 80.974 69.4447 79.0509 70.2139C76.9569 71.1114 74.3928 71.5814 71.3159 71.5814C69.3501 71.5814 67.427 71.4105 65.5039 71.0259C64.0082 70.7695 62.5125 70.2994 61.145 69.6584C60.8458 69.4874 60.6321 69.1883 60.6749 68.8464V61.4105C60.6749 61.2823 60.7176 61.1113 60.8458 61.0259C60.974 60.9404 61.1022 60.9831 61.2304 61.0686C62.8971 62.0515 64.6492 62.7353 66.5296 63.1626C68.1535 63.59 69.8629 63.8037 71.5723 63.8037C73.1962 63.8037 74.3501 63.59 75.1193 63.2054C75.8031 62.9062 76.2732 62.1797 76.2732 61.4105C76.2732 60.8122 75.9313 60.2566 75.2475 59.7011C74.5638 59.1455 73.1535 58.5045 71.0595 57.6925C68.88 56.9233 66.8715 55.8977 64.9911 54.6156C63.6663 53.6755 62.5552 52.4361 61.7433 50.9831C61.0595 49.6156 60.7176 48.1199 60.7603 46.6242C60.7603 44.7866 61.2732 43.0344 62.2133 41.4532C63.2817 39.7438 64.8629 38.3763 66.7005 37.5216C68.7091 36.496 71.2304 36.0259 74.2646 36.0259C76.0168 36.0259 77.8116 36.1541 79.5638 36.4105C80.8458 36.5814 82.0851 36.9233 83.239 37.3934C83.4099 37.4361 83.5809 37.6071 83.6663 37.778C83.7091 37.949 83.7518 38.1199 83.7518 38.2908V45.2566C83.7518 45.4276 83.6663 45.5985 83.5381 45.684C83.1535 45.7695 82.9398 45.7695 82.7689 45.684Z" fill="white"/>
</svg>
