<svg width="98" height="110" viewBox="0 0 98 110" fill="none" xmlns="http://www.w3.org/2000/svg">
<path d="M97.4963 0L88.6601 98.9885L48.9407 110L9.3308 99.004L0.503906 0H97.4963Z" fill="#264DE4"/>
<path d="M81.0951 92.6852L88.6463 8.09497H49V101.583L81.0951 92.6852Z" fill="#2965F1"/>
<path d="M27.3374 10.8809H40.0778V16.2087H32.6652V21.5365H40.0778V26.8643H27.3374V10.8809Z" fill="#EBEBEB"/>
<path d="M42.6257 10.8809H55.3661V15.5137H47.9535V16.4403H55.3661V27.0959H42.6257V22.2314H50.0383V21.3048H42.6257V10.8809Z" fill="white"/>
<path d="M42.6257 10.8811L48.9683 10.8809V15.5137L47.9535 15.514V16.4406L48.9683 16.4403V27.0959L42.6257 27.0962V22.2317H48.9683V21.3051H42.6257V10.8811Z" fill="#EBEBEB"/>
<path d="M57.9138 10.8809H70.6542V15.5137H63.2416V16.4403H70.6542V27.0959H57.9138V22.2314H65.3264V21.3048H57.9138V10.8809Z" fill="white"/>
<path d="M26.7891 54.2852L27.6441 63.8248H48.9923V54.2852H26.7891Z" fill="#EBEBEB"/>
<path d="M48.993 88.9862V79.0608L48.9512 79.072L38.3267 76.2031L37.6475 68.5947H32.4848H28.071L29.4076 83.5735L48.9491 88.9984L48.993 88.9862Z" fill="#EBEBEB"/>
<path d="M48.9925 34.9763H48.9595H25.0713L25.9385 44.5162H48.9925V34.9763Z" fill="#EBEBEB"/>
<path d="M60.7069 63.8247L59.5996 76.1971L48.9597 79.0689V88.9938L68.5168 83.5736L68.6603 81.9619L70.902 56.8468L71.1348 54.2851L72.857 34.9763H48.9597V44.5162H62.4022L61.5342 54.2851H48.9597V63.8247H60.7069Z" fill="white"/>
</svg>
