<svg viewBox="0 0 68 100" fill="none" xmlns="http://www.w3.org/2000/svg">
<path d="M17.3031 100C26.5197 100 33.9998 92.5334 33.9998 83.3334V66.6667H17.3031C8.08655 66.6667 0.606445 74.1334 0.606445 83.3334C0.606445 92.5334 8.08655 100 17.3031 100Z" fill="#0ACF83"/>
<path d="M0.606445 50.0002C0.606445 40.8002 8.08655 33.3335 17.3031 33.3335H33.9998V66.6668H17.3031C8.08655 66.6668 0.606445 59.2002 0.606445 50.0002Z" fill="#A259FF"/>
<path d="M0.606445 16.6667C0.606445 7.46667 8.08655 0 17.3031 0H33.9998V33.3333H17.3031C8.08655 33.3333 0.606445 25.8667 0.606445 16.6667Z" fill="#F24E1E"/>
<path d="M33.9995 0H50.6962C59.9127 0 67.3929 7.46667 67.3929 16.6667C67.3929 25.8667 59.9127 33.3333 50.6962 33.3333H33.9995V0Z" fill="#FF7262"/>
<path d="M67.3929 50.0002C67.3929 59.2002 59.9127 66.6668 50.6962 66.6668C41.4796 66.6668 33.9995 59.2002 33.9995 50.0002C33.9995 40.8002 41.4796 33.3335 50.6962 33.3335C59.9127 33.3335 67.3929 40.8002 67.3929 50.0002Z" fill="#1ABCFE"/>
</svg>
