<svg width="98" height="110" viewBox="0 0 98 110" fill="none" xmlns="http://www.w3.org/2000/svg">
<path d="M9.32084 99.0374L0.497314 0H97.5027L88.6791 98.9839L48.9198 110" fill="#E44D26"/>
<path d="M48.9995 101.578V8.12842H88.6519L81.0851 92.6204" fill="#F16529"/>
<path d="M25.1663 34.9797H49.2604V44.5453H35.6916L36.5793 54.3426H49.2604V63.8871H27.787M28.2097 68.6909H37.8474L38.5237 76.3391L49.2604 79.2046V89.1915L29.5624 83.7134" fill="#EBEBEB"/>
<path d="M72.7528 34.9795H48.6587V44.5525H71.8636M70.9955 54.3574H48.6587V63.9304H60.5152L59.3931 76.3711L48.6587 79.2387V89.1913L68.349 83.7511" fill="white"/>
<path d="M49.7002 10.8855H55.3643L58.8427 16.5966L62.3211 10.8855H67.9853V27.1023H62.5797V19.0644L58.7957 24.8931L55.0118 19.0644V27.1023H49.7002M70.6646 10.8855H76.0702V21.7437H83.7321V27.1023H70.6646" fill="white"/>
<path d="M14.1873 10.8855H19.5929V16.2441H24.5754V10.8855H29.981V27.1023H24.5754V21.6967H19.6399V27.1023H14.1873M37.1259 16.2911H32.3548V10.8855H47.326V16.2911H42.5315V27.1023H37.1259" fill="#EBEBEB"/>
</svg>
