<svg width="118" height="70" viewBox="0 0 118 70" fill="none" xmlns="http://www.w3.org/2000/svg">
<path fill-rule="evenodd" clip-rule="evenodd" d="M59 0C43.3529 0 33.5735 7.77778 29.6617 23.3333C35.5294 15.5556 42.375 12.6389 50.1985 14.5833C54.6622 15.6917 57.8525 18.913 61.384 22.4756C67.1364 28.2809 73.7951 35 88.3382 35C103.985 35 113.765 27.2222 117.676 11.6667C111.809 19.4444 104.963 22.3611 97.1397 20.4167C92.6759 19.3083 89.4856 16.087 85.9542 12.5244C80.2017 6.71913 73.543 0 59 0ZM29.6617 35C14.0147 35 4.23525 42.7778 0.323486 58.3333C6.19113 50.5555 13.0367 47.6389 20.8603 49.5833C25.324 50.6938 28.5143 53.913 32.0457 57.4756C37.7982 63.2809 44.4569 70 59 70C74.647 70 84.4264 62.2222 88.3382 46.6667C82.4705 54.4444 75.625 57.3611 67.8014 55.4167C63.3377 54.3083 60.1474 51.087 56.616 47.5244C50.8635 41.7191 44.2048 35 29.6617 35Z" fill="#38BDF8"/>
</svg>
